<?xml version="1.0" standalone="no"?>
<!DOCTYPE svg PUBLIC "-//W3C//DTD SVG 20010904//EN"
 "http://www.w3.org/TR/2001/REC-SVG-20010904/DTD/svg10.dtd">
<svg version="1.0" xmlns="http://www.w3.org/2000/svg"
 width="500.000000pt" height="500.000000pt" viewBox="0 0 500.000000 500.000000"
 preserveAspectRatio="xMidYMid meet">

<g transform="translate(0.000000,500.000000) scale(0.100000,-0.100000)"
fill="#000000" stroke="none">
<path d="M3015 3715 c-16 -8 -52 -21 -80 -29 -48 -15 -48 -15 -10 -10 31 4 37
2 25 -6 -13 -10 -13 -11 0 -7 8 2 14 9 13 14 -1 6 42 10 111 9 95 -1 110 -3
97 -14 -14 -12 -14 -12 3 -4 10 5 26 8 35 7 9 -1 10 0 3 2 -7 3 -10 8 -8 12 3
4 0 8 -7 9 -37 3 -65 10 -84 20 -28 15 -61 14 -98 -3z"/>
<path d="M2870 3660 c8 -5 20 -10 25 -10 6 0 3 5 -5 10 -8 5 -19 10 -25 10 -5
0 -3 -5 5 -10z"/>
<path d="M3120 3666 c0 -2 7 -7 16 -10 8 -3 12 -2 9 4 -6 10 -25 14 -25 6z"/>
<path d="M2828 3653 c7 -3 16 -2 19 1 4 3 -2 6 -13 5 -11 0 -14 -3 -6 -6z"/>
<path d="M3110 2957 c-112 -34 -204 -90 -291 -176 -85 -86 -126 -151 -163
-262 -46 -137 -44 -314 4 -439 9 -25 15 -51 12 -59 -2 -8 0 -11 6 -7 12 7 33
-47 23 -61 -10 -16 -87 -52 -128 -61 -30 -6 -39 -13 -43 -32 -3 -19 -6 -13
-10 20 -3 25 -8 -133 -12 -350 -3 -217 -4 -397 -2 -399 2 -2 43 13 91 34 49
20 246 104 438 185 193 81 413 175 490 207 77 33 155 65 173 72 23 10 30 17
22 26 -7 8 9 25 57 60 62 46 66 48 79 30 12 -17 8 -23 -51 -68 -83 -63 -83
-76 -7 -176 32 -42 116 -152 186 -246 159 -209 173 -225 204 -225 29 0 118 54
132 81 25 47 31 38 -282 448 -65 84 -118 156 -118 160 1 3 20 15 43 26 l42 20
3 340 c1 187 0 350 -3 363 -7 27 -25 20 -26 -11 -1 -16 -3 -14 -10 11 -5 17
-14 32 -19 32 -6 0 -10 5 -10 11 0 6 -19 49 -42 96 -33 68 -59 103 -122 167
-90 90 -158 135 -268 174 -61 22 -93 26 -198 29 -107 2 -136 0 -200 -20z m380
-141 c202 -82 340 -280 340 -486 0 -137 -50 -278 -128 -359 -22 -23 -37 -41
-35 -41 3 0 -8 -10 -24 -22 -61 -50 -94 -69 -105 -62 -7 4 -8 3 -4 -4 4 -7 6
-12 4 -12 -2 0 -36 -11 -76 -25 -94 -32 -226 -34 -319 -6 -176 53 -311 188
-364 364 -28 92 -26 241 5 328 59 167 197 296 367 344 87 24 257 15 339 -19z"/>
</g>
</svg>
